<svg width="32" height="32" viewBox="0 0 32 32" fill="none" xmlns="http://www.w3.org/2000/svg">
<g clip-path="url(#clip0_0_1351)">
<path d="M15.9987 3.99998C14.4228 3.99998 12.8624 4.31037 11.4065 4.91343C9.95059 5.51648 8.62772 6.40039 7.51342 7.5147C6.39911 8.629 5.5152 9.95187 4.91214 11.4078C4.30909 12.8637 3.9987 14.4241 3.9987 16C3.9987 17.5758 4.30909 19.1363 4.91214 20.5922C5.5152 22.0481 6.39911 23.371 7.51342 24.4853C8.62772 25.5996 9.95059 26.4835 11.4065 27.0865C12.8624 27.6896 14.4228 28 15.9987 28C19.1813 28 22.2335 26.7357 24.484 24.4853C26.7344 22.2348 27.9987 19.1826 27.9987 16C27.9987 12.8174 26.7344 9.76513 24.484 7.5147C22.2335 5.26426 19.1813 3.99998 15.9987 3.99998ZM1.33203 16C1.33203 7.89998 7.8987 1.33331 15.9987 1.33331C24.0987 1.33331 30.6654 7.89998 30.6654 16C30.6654 24.1 24.0987 30.6666 15.9987 30.6666C7.8987 30.6666 1.33203 24.1 1.33203 16Z" fill="white" fill-opacity="0.698"/>
<path d="M23.9987 16C23.9987 16.3536 23.8582 16.6928 23.6081 16.9428C23.3581 17.1929 23.0189 17.3333 22.6653 17.3333H17.332V22.6667C17.332 23.0203 17.1915 23.3594 16.9415 23.6095C16.6914 23.8595 16.3523 24 15.9987 24C15.645 24 15.3059 23.8595 15.0558 23.6095C14.8058 23.3594 14.6653 23.0203 14.6653 22.6667V17.3333H9.33199C8.97837 17.3333 8.63923 17.1929 8.38918 16.9428C8.13913 16.6928 7.99866 16.3536 7.99866 16C7.99866 15.6464 8.13913 15.3072 8.38918 15.0572C8.63923 14.8071 8.97837 14.6667 9.33199 14.6667H14.6653V9.33333C14.6653 8.97971 14.8058 8.64057 15.0558 8.39052C15.3059 8.14048 15.645 8 15.9987 8C16.3523 8 16.6914 8.14048 16.9415 8.39052C17.1915 8.64057 17.332 8.97971 17.332 9.33333V14.6667H22.6653C23.0189 14.6667 23.3581 14.8071 23.6081 15.0572C23.8582 15.3072 23.9987 15.6464 23.9987 16Z" fill="white" fill-opacity="0.698"/>
</g>
<defs>
<clipPath id="clip0_0_1351">
<rect width="32" height="32" fill="white"/>
</clipPath>
</defs>
</svg>
