<svg width="24" height="24" viewBox="0 0 24 24" fill="none" xmlns="http://www.w3.org/2000/svg">
<g clip-path="url(#clip0_0_148)">
<path d="M13.5 1.51496C13.0439 1.25166 12.5266 1.11304 12 1.11304C11.4734 1.11304 10.9561 1.25166 10.5 1.51496L3 5.84496C2.69597 6.02049 2.4435 6.27296 2.26796 6.57699C2.09243 6.88102 2.00001 7.2259 2 7.57696V21C2 21.2652 2.10536 21.5195 2.29289 21.7071C2.48043 21.8946 2.73478 22 3 22H9C9.26522 22 9.51957 21.8946 9.70711 21.7071C9.89464 21.5195 10 21.2652 10 21V15H14V21C14 21.2652 14.1054 21.5195 14.2929 21.7071C14.4804 21.8946 14.7348 22 15 22H21C21.2652 22 21.5196 21.8946 21.7071 21.7071C21.8946 21.5195 22 21.2652 22 21V7.57696C22 7.2259 21.9076 6.88102 21.732 6.57699C21.5565 6.27296 21.304 6.02049 21 5.84496L13.5 1.51496Z" fill="white"/>
</g>
<defs>
<clipPath id="clip0_0_148">
<rect width="24" height="24" fill="white"/>
</clipPath>
</defs>
</svg>
